<?xml version="1.0" encoding="UTF-8" standalone="no"?>
<svg
   width="850"
   height="60"
   viewBox="0 0 850 60"
   version="1.1"
   style="stroke-linecap:round;stroke-linejoin:round;stroke-miterlimit:1.5"
   id="svg9"
   sodipodi:docname="gray0_ctp_on_line.svg"
   xml:space="preserve"
   inkscape:version="1.4 (1:1.4+202410161351+e7c3feb100)"
   inkscape:export-filename="cat-on-line.png"
   inkscape:export-xdpi="96"
   inkscape:export-ydpi="96"
   xmlns:inkscape="http://www.inkscape.org/namespaces/inkscape"
   xmlns:sodipodi="http://sodipodi.sourceforge.net/DTD/sodipodi-0.dtd"
   xmlns="http://www.w3.org/2000/svg"
   xmlns:svg="http://www.w3.org/2000/svg"><defs
     id="defs9" /><sodipodi:namedview
     id="namedview9"
     pagecolor="#ffffff"
     bordercolor="#000000"
     borderopacity="0.25"
     inkscape:showpageshadow="2"
     inkscape:pageopacity="0.0"
     inkscape:pagecheckerboard="0"
     inkscape:deskcolor="#d1d1d1"
     inkscape:zoom="0.70710678"
     inkscape:cx="247.48737"
     inkscape:cy="74.246212"
     inkscape:window-width="1920"
     inkscape:window-height="1016"
     inkscape:window-x="0"
     inkscape:window-y="27"
     inkscape:window-maximized="1"
     inkscape:current-layer="g9" /><g
     id="g9"
     transform="translate(126.25869,-9.50022)"><path
       d="m 205.53487,26.088967 c 0,0 3.45347,-0.270439 4.64645,-5.65984"
       style="fill:none;stroke:#6e6c7e;stroke-width:1.53079px"
       id="path4" /><ellipse
       transform="matrix(0.92765078,-0.37344882,0.37345044,0.92765013,0,0)"
       cx="182.14897"
       cy="93.454231"
       rx="1.1407049"
       ry="1.4681139"
       style="fill:#2f2c3e;stroke-width:1.05825"
       id="ellipse5" /><path
       d="m 202.59882,13.950822 c 3.61572,0 4.46378,4.376019 7.21103,4.376019"
       style="fill:none;stroke:#6e6c7e;stroke-width:1.53079px"
       id="path6" /><path
       d="m 205.144,12.651692 c 0,0 -1.03583,-2.38191 -1.92982,-2.38191 -0.89398,0 -2.18391,2.478861 -2.18391,2.478861"
       style="fill:none;stroke:#6e6c7e;stroke-width:1.53079px"
       id="path7" /><path
       d="m 198.24626,52.781866 c 0,-3.97087 -3.40447,-4.557673 -3.40447,-15.199726"
       style="fill:none;stroke:#6e6c7e;stroke-width:1.53079px"
       id="path1" /><path
       d="M 201.90792,42.5021 V 52.704307"
       style="fill:none;stroke:#6e6c7e;stroke-width:1.53079px"
       id="path2" /><path
       d="m 205.46547,52.531836 c 0,-3.505508 2.21455,-7.753961 2.21455,-13.336244 0,-5.583302 -0.67354,-10.5002 -0.85418,-13.546472"
       style="fill:none;stroke:#6e6c7e;stroke-width:1.53079px"
       id="path3" /><path
       d="m 200.26589,15.47753 c 0,0 -1.44813,-4.499503 -2.67277,-4.499503 -1.22463,0 -3.36671,5.871091 -3.36671,14.724161 0,2.287001 -11.92893,8.289739 -9.40007,22.154616 0.40616,2.224748 1.42262,6.467077 1.42262,6.483406 0,0.01633 2.56969,9.724599 -2.92789,9.724599 -1.14402,0 -1.69205,-0.632726 -2.83605,-0.632726 -1.14299,0 -2.06554,0.780704 -2.06554,1.794086 0,1.013384 1.13277,3.504489 5.16896,3.504489 7.29371,0 7.57128,-6.109895 7.57128,-10.069538 0,-3.959643 -0.0368,-2.73399 -0.0368,-3.382026 0,-2.17066 1.80836,-2.612548 2.47988,-2.858495"
       style="fill:none;stroke:#6e6c7e;stroke-width:1.53079px"
       id="path5" /><path
       d="M 194.86317,54.726175 H 722.90949"
       style="fill:none;stroke:#6e6c7e;stroke-width:1.65779px"
       id="path8" /><path
       d="M -125.32799,54.727353 H 182.92948"
       style="fill:none;stroke:#6e6c7e;stroke-width:1.85638px"
       id="path9" /></g></svg>
